<svg width="246" height="25" viewBox="0 0 246 25" fill="none" xmlns="http://www.w3.org/2000/svg">
<g clip-path="url(#clip0)">
<rect y="0.430542" width="1.33933" height="23.673" fill="#162734"/>
<rect x="5.01782" y="0.430542" width="1.67417" height="23.673" fill="#162734"/>
<rect x="9.36841" y="0.430542" width="2.25956" height="23.673" fill="#162734"/>
<rect x="13.7168" y="0.430542" width="3.26406" height="23.673" fill="#162734"/>
<rect x="18.4021" y="0.430542" width="4.68311" height="23.673" fill="#162734"/>
<path fill-rule="evenodd" clip-rule="evenodd" d="M37.0544 18.6777H31.7859V5.99275H36.0931C38.1431 5.99275 37.9746 7.87647 37.9746 7.87647C37.9746 9.38209 36.2184 9.63263 36.2184 9.63263H32.6218V14.1085H36.5123C38.3094 14.1085 39.0611 14.9854 39.0611 16.6596C39.0611 18.5843 37.0544 18.6663 37.0544 18.6663M45.5869 17.245C45.5026 12.3933 41.824 11.3045 41.824 11.3045C44.6667 10.6349 44.5004 6.70342 44.5004 6.70342C44.5004 1.10237 40.61 0.43042 37.0544 0.43042H24.4241V24.1057H31.7859L36.3027 24.0647C40.0132 24.0647 42.2409 22.8119 42.2409 22.8119C45.5026 21.0944 45.587 17.245 45.587 17.245" fill="#162734"/>
<path d="M67.251 19.8366C67.4196 15.8209 66.2488 14.8255 66.2488 14.8255C65.5791 13.9144 63.9892 12.9851 63.9892 12.9851C64.5412 12.773 65.0509 12.4645 65.4948 12.074C67.6701 10.3998 67.5015 7.2223 67.5015 7.2223C67.5015 3.62569 65.078 2.21118 65.078 2.21118C63.1259 0.514229 58.8027 0.455017 58.8027 0.455017H46.5027V24.1052H53.7802V6.03557H58.7913C60.8003 6.4524 60.6317 8.37712 60.6317 8.37712C60.691 9.80528 59.5407 10.4522 58.8096 10.7187H54.8713V15.6546H58.2196C60.6158 16.2696 60.3926 20.1715 60.3926 20.1715C60.4505 21.5277 60.7595 22.8615 61.3037 24.1052H68.3329C67.4332 23.2169 67.2442 19.8366 67.2442 19.8366" fill="#162734"/>
<rect x="68.9507" y="0.430542" width="6.94495" height="23.673" fill="#162734"/>
<path d="M91.7061 0.430435V12.3933L84.8477 0.430435H77.9871V24.1034H84.8477V12.2954L91.7608 24.1057H99.1522V0.43042L91.7061 0.430435Z" fill="#162734"/>
<rect x="101.074" y="0.4328" width="7.36178" height="23.6752" fill="#162734"/>
<path d="M115.789 0.433472L108.017 11.975L115.796 24.1042H124.914L116.383 11.5559L124.322 0.433472L115.789 0.433472Z" fill="#162734"/>
<path d="M123.296 20.3657C124.503 22.3006 126.434 23.6721 128.658 24.1741C128.658 24.1741 132.744 25.2469 136.794 24.0557C136.794 24.0557 140.803 23.1445 142.111 19.532C142.111 19.532 143.58 15.76 141.477 12.9014C141.477 12.9014 140.047 10.8764 136.238 9.76714C136.238 9.76714 133.619 9.08381 132.072 8.69659C132.072 8.69659 130.043 8.32075 129.528 7.32992C129.366 7.11365 129.292 6.84465 129.319 6.57598C129.319 6.57598 129.442 5.18425 131.161 5.10226C131.161 5.10226 133.211 4.81754 134.273 5.47353C135.092 5.88763 135.566 6.76893 135.459 7.6807H141.89C142.007 5.34355 140.903 3.11297 138.974 1.78809C138.974 1.78809 136.952 0.0410413 132.266 2.94092e-05C132.266 2.94092e-05 127.426 -0.040967 124.522 2.93836C122.812 4.93075 122.411 7.73257 123.492 10.1248C123.492 10.1248 124.647 12.9834 129.688 14.2134C129.688 14.2134 134.134 15.2452 135.325 16.0789C135.525 16.2161 135.702 16.3854 135.847 16.58C136.189 16.9167 136.307 17.4197 136.152 17.8738C136.152 17.8738 135.906 18.9785 134.432 19.3452C134.432 19.3452 131.526 20.2062 129.649 18.6915C129.649 18.6915 128.669 17.9558 128.631 15.9103H122.23C122.23 16.4388 122.283 18.8532 123.303 20.3657" fill="#162734"/>
<path d="M162.615 10.8488H150.376V0.856201H147.283V24.0964H150.376V13.4523H162.615V24.0964H165.706V0.856201H162.615V10.8488Z" fill="#162734"/>
<path fill-rule="evenodd" clip-rule="evenodd" d="M187.568 15.9452C187.281 17.0493 186.795 18.0919 186.135 19.0225C185.48 19.938 184.622 20.6901 183.629 21.2205C181.325 22.3255 178.645 22.3255 176.34 21.2205C175.348 20.6899 174.49 19.9378 173.835 19.0225C173.173 18.0927 172.687 17.0498 172.4 15.9452C171.79 13.6743 171.79 11.2825 172.4 9.01163C172.686 7.90823 173.171 6.86619 173.831 5.93661C174.486 5.0213 175.343 4.26918 176.336 3.73856C178.64 2.63359 181.321 2.63359 183.625 3.73856C184.618 4.26898 185.475 5.02113 186.131 5.93661C186.79 6.86658 187.275 7.90844 187.563 9.01161C188.171 11.2829 188.171 13.6739 187.563 15.9452M188.313 4.01649C187.361 2.87384 186.171 1.95203 184.828 1.31504C181.735 -0.0304684 178.222 -0.0304684 175.129 1.31504C173.785 1.95169 172.597 2.87357 171.646 4.01647C170.701 5.16516 169.988 6.48642 169.546 7.90691C168.614 10.884 168.614 14.0751 169.546 17.0522C169.988 18.4727 170.701 19.794 171.646 20.9427C172.595 22.084 173.784 23.0011 175.129 23.6281C178.226 24.9523 181.73 24.9523 184.828 23.6281C186.173 23.0005 187.363 22.0835 188.313 20.9427C189.261 19.7935 189.977 18.4716 190.422 17.0499C191.354 14.0728 191.354 10.8818 190.422 7.90464C189.98 6.48464 189.268 5.16356 188.324 4.0142" fill="#162734"/>
<path d="M224.913 13.4523H234.805V10.8488H224.913V3.4597H237.869V0.856201H221.819V24.0964H237.964V21.4929H224.913L224.913 13.4523Z" fill="#162734"/>
<path d="M205.845 20.3859L198.52 0.856201H194.29V24.0964H197.219V4.76258H197.285L204.542 24.0964H207.18L214.439 4.76258H214.503V24.0964H217.432V0.856201H213.2L205.845 20.3859Z" fill="#162734"/>
<path fill-rule="evenodd" clip-rule="evenodd" d="M243.326 2.83801C243.535 2.86197 243.746 2.81289 243.923 2.69906C244.029 2.59664 244.085 2.45244 244.075 2.30501C244.075 1.97928 243.848 1.81757 243.392 1.81757H242.729V2.83801H243.326ZM243.472 1.42349C244.196 1.42349 244.558 1.72644 244.558 2.33461C244.558 2.85395 244.279 3.14323 243.72 3.20244L244.631 4.60099H244.112L243.253 3.23432H242.736V4.60099H242.255V1.42349H243.472ZM241.06 3.01796C241.05 3.62427 241.279 4.21014 241.697 4.64885C242.112 5.08671 242.689 5.33398 243.292 5.33218C243.893 5.34413 244.469 5.09486 244.872 4.64885C245.292 4.20612 245.525 3.61869 245.522 3.00885C245.535 2.39427 245.296 1.80107 244.861 1.36656C244.445 0.932875 243.867 0.691907 243.267 0.701453C242.681 0.698778 242.12 0.939669 241.718 1.36656C241.293 1.81371 241.057 2.40783 241.06 3.02479M243.289 0.314253C243.769 0.306967 244.242 0.431447 244.656 0.674137C245.48 1.16766 245.989 2.05321 246 3.01341C246.001 3.98472 245.479 4.88127 244.633 5.35953C244.217 5.59753 243.746 5.72312 243.267 5.72398C242.787 5.72714 242.315 5.60126 241.9 5.35954C241.485 5.12496 241.142 4.78058 240.909 4.36415C240.673 3.95344 240.549 3.48737 240.552 3.01343C240.541 2.29638 240.825 1.60637 241.338 1.10465C241.845 0.589069 242.539 0.300003 243.262 0.302878" fill="#162734"/>
</g>
<defs>
<clipPath id="clip0">
<rect width="246" height="24.6213" fill="white"/>
</clipPath>
</defs>
</svg>
